<?xml version="1.0" encoding="UTF-8" standalone="no"?>
<svg xmlns:dc="http://purl.org/dc/elements/1.1/"
  xmlns:cc="http://creativecommons.org/ns#"
  xmlns:rdf="http://www.w3.org/1999/02/22-rdf-syntax-ns#"
  xmlns:svg="http://www.w3.org/2000/svg"
  xmlns="http://www.w3.org/2000/svg"
  xmlns:xlink="http://www.w3.org/1999/xlink"
  xmlns:sodipodi="http://sodipodi.sourceforge.net/DTD/sodipodi-0.dtd"
  xmlns:inkscape="http://www.inkscape.org/namespaces/inkscape" version="1.1" id="svg2" xml:space="preserve" width="600" height="600" viewBox="0 0 600 600" sodipodi:docname="2294937.ai">
  <g xmlns="http://www.w3.org/2000/svg" id="g1056">
    <g id="g1058" clip-path="url(#clipPath1062)">
      <g id="g1064" transform="translate(76.8867,152.0303)">
        <path d="m 0,0 c 47.879,-12.895 88.444,14.379 127.696,-4.579 16.233,-7.84 27.522,-25.747 35.328,-45.501 h 102.572 c -21.715,14.793 -37.589,38.253 -42.433,64.134 -4.565,24.398 0.118,49.755 -3.877,74.253 -5.742,35.213 -30.558,66.716 -63.448,80.543 -15.168,6.377 -31.631,9.145 -46.947,15.157 -24.526,12.263 -44.042,29.17 -35.792,59.396 4.145,15.188 14.142,26.793 23.26,38.97 H -55.821 V 59.823 C -43.982,21.568 -19.736,5.314 0,0" style="fill:#ffffff;fill-opacity:1;fill-rule:nonzero;stroke:none" id="path1066"/>
      </g>
    </g>
  </g>
</svg>
